<?xml version="1.0" encoding="utf-8"?>
<!-- Generator: Adobe Illustrator 16.0.3, SVG Export Plug-In . SVG Version: 6.00 Build 0)  -->
<!DOCTYPE svg PUBLIC "-//W3C//DTD SVG 1.1//EN" "http://www.w3.org/Graphics/SVG/1.1/DTD/svg11.dtd">
<svg version="1.1" id="Layer_1" xmlns="http://www.w3.org/2000/svg" xmlns:xlink="http://www.w3.org/1999/xlink" x="0px" y="0px"
	 width="488.5px" height="108px" viewBox="0 0 488.5 108" enable-background="new 0 0 488.5 108" xml:space="preserve">
<g>
	
		<polyline fill-rule="evenodd" clip-rule="evenodd" fill="#CDEAF7" stroke="#241270" stroke-width="5" stroke-linejoin="round" stroke-miterlimit="10" points="
		23,94 23,105.5 486,105.5 486,2.5 23,2.5 23,14 	"/>
	<g>
		<rect x="44.373" y="24.782" fill="none" width="429.67" height="36.642"/>
		
			<text transform="matrix(1 0 0 1 48.7988 55.7783)" fill="#241270" font-family="'AvenirNext-Bold'" font-size="41" letter-spacing="4">JESSE GARFINKEL</text>
	</g>
	<g>
		<rect x="44.373" y="68.923" fill="none" width="429.67" height="36.642"/>
		
			<text transform="matrix(1 0 0 1 137.9551 84.7988)" fill="#241270" font-family="'AvenirNext-Regular'" font-size="21" letter-spacing="2">FOR STATE REP 2018</text>
	</g>
	<g>
		<g>
			
				<path fill-rule="evenodd" clip-rule="evenodd" fill="#F5C8B5" stroke="#241270" stroke-width="3.5" stroke-linejoin="round" stroke-miterlimit="10" d="
				M9.738,21.002c8.279,0,16.426,0,24.74,0c-0.455,1.528-0.426,2.782,0.326,4.04c0.594,0.996,0.863,2.182,1.348,3.25
				c1.72,3.799,0.683,7.818,0.895,11.727c0.299,5.514,0.267,11.045,0.342,16.57c0.005,0.353-0.299,0.704-0.435,1.065
				c-0.096,0.255-0.293,0.63-0.192,0.771c0.363,0.512,0.179,0.842-0.156,1.254c-0.129,0.158-0.146,0.597-0.021,0.74
				c1.021,1.173,0.629,2.752,1.203,4.046c0.059,0.131-0.045,0.366-0.13,0.521c-0.468,0.85-0.943,1.696-1.438,2.529
				c-0.316,0.535-0.623,1.088-1.023,1.557c-0.342,0.398-0.829,0.667-1.213,1.032c-0.193,0.185-0.48,0.561-0.416,0.677
				c0.678,1.213-0.682,2.121-0.444,3.273c0.104,0.503-0.015,1.058-0.083,1.582c-0.039,0.291-0.098,0.684-0.296,0.83
				c-0.907,0.676-0.769,1.398-0.181,2.154c0.5,0.641,0.291,0.838-0.438,0.963c-0.936,0.158-1.958,0.271-2.729,0.75
				c-0.398,0.247-0.386,1.236-0.447,1.899c-0.021,0.217,0.432,0.456,0.452,0.702c0.032,0.396-0.019,0.869-0.226,1.186
				c-0.094,0.144-0.686,0.086-0.978-0.045c-0.93-0.414-1.818-0.914-2.732-1.366c-0.994-0.492-1.599-0.261-2.122,0.757
				c-0.13,0.252-0.352,0.456-0.499,0.701c-0.145,0.244-0.247,0.513-0.373,0.78c-0.274-0.2-0.578-0.421-0.882-0.644
				c-0.051,0.054-0.1,0.107-0.149,0.162c0.109,0.209,0.218,0.42,0.404,0.775c-1.31-0.289-1.25-1.418-1.64-2.135
				c-0.363-0.664-1.109-1.553,0.059-2.273c0.055-0.033,0.074-0.252,0.023-0.31c-0.764-0.89-0.461-2.153-0.917-3.009
				c-0.595-1.109-1.806-1.893-2.769-2.799c-0.057-0.054-0.258,0.057-0.395,0.072c-0.22,0.024-0.599,0.108-0.633,0.033
				c-0.112-0.232-0.096-0.526-0.099-0.557c-1.29-1.164-2.548-2.184-3.64-3.358c-0.293-0.315-0.226-1.149-0.062-1.66
				c0.263-0.811,0.693-1.585,1.152-2.312c0.346-0.545,0.557-0.979,0.396-1.695c-0.088-0.391,0.506-0.937,0.875-1.547
				c-0.86-0.5-1.71-1.043-2.612-1.476c-0.193-0.092-0.596,0.187-0.871,0.348c-0.312,0.183-0.634,0.64-0.87,0.591
				c-0.312-0.066-0.694-0.471-0.778-0.799c-0.209-0.814-0.334-1.665-0.367-2.507c-0.067-1.657-1.487-2.229-2.422-3.198
				c-1.084-1.126-2.326-2.168-3.105-3.48c-0.331-0.559-0.964-1.275-0.746-2.311c0.167-0.801-0.501-1.744-0.633-2.647
				c-0.157-1.079,0.103-2.045,1.061-2.797c0.266-0.208,0.335-0.955,0.19-1.344c-0.398-1.076,0.221-1.366,1.016-1.423
				c0.87-0.064,1.26-0.37,1.43-1.278c0.133-0.698,0.595-1.375,1.038-1.966c0.643-0.856,0.537-2.197-0.225-3.011
				c-0.326-0.35-0.717-1.128-0.562-1.347c0.412-0.581-0.03-1.701,1.457-1.733c1.589-0.032,3.256-0.548,4.648-1.518
				c0.234-0.163,0.473-0.47,0.511-0.739c0.118-0.822,0.455-1.36,1.112-1.959c0.533-0.486,0.609-1.629,0.622-2.484
				c0.016-0.934-0.318-1.789-1.459-2.076c-0.346-0.088-0.809-0.59-0.832-0.928c-0.078-1.172-0.802-1.711-1.721-2.161
				C9.946,21.383,9.877,21.188,9.738,21.002z"/>
		</g>
	</g>
	<path fill-rule="evenodd" clip-rule="evenodd" fill="#DD492D" d="M31.956,34.163l-1.896-1.81l1.897-1.921
		c0.183-0.185,0.181-0.499,0.021-0.703l-0.033-0.041c-0.131-0.164-0.346-0.229-0.547-0.172l-2.457,0.726l-0.63-2.718
		c-0.056-0.227-0.296-0.523-0.531-0.523h-0.046c-0.238,0-0.451,0.319-0.508,0.55L26.6,30.178l-2.468-0.696
		c-0.206-0.061-0.429,0.029-0.559,0.202L23.49,29.8c-0.157,0.211-0.132,0.51,0.06,0.688l1.921,1.813l-1.869,1.893
		c-0.182,0.182-0.201,0.469-0.049,0.673l0.049,0.065c0.13,0.176,0.354,0.252,0.562,0.19l2.437-0.714l0.635,2.592
		c0.058,0.233,0.267,0.393,0.5,0.393c0.028,0,0.055-0.002,0.083-0.006l0.078-0.014c0.204-0.033,0.369-0.188,0.418-0.39l0.627-2.577
		l2.447,0.72c0.213,0.063,0.47-0.054,0.595-0.238l0.045-0.067C32.167,34.614,32.137,34.336,31.956,34.163z"/>
</g>
</svg>
