<?xml version="1.0" encoding="utf-8"?>
<!-- Generator: Adobe Illustrator 16.0.3, SVG Export Plug-In . SVG Version: 6.00 Build 0)  -->
<!DOCTYPE svg PUBLIC "-//W3C//DTD SVG 1.1//EN" "http://www.w3.org/Graphics/SVG/1.1/DTD/svg11.dtd">
<svg version="1.1" id="Layer_1" xmlns="http://www.w3.org/2000/svg" xmlns:xlink="http://www.w3.org/1999/xlink" x="0px" y="0px"
	 width="205.182px" height="351.398px" viewBox="0 0 205.182 351.398" enable-background="new 0 0 205.182 351.398"
	 xml:space="preserve">
<g>
	<g>
		<g>
			<path fill="#FFFFFF" d="M50.516,9.078c42.949,0,85.209,0,128.34,0c-2.36,7.929-2.209,14.434,1.691,20.958
				c3.08,5.167,4.479,11.317,6.992,16.859c8.92,19.706,3.541,40.558,4.641,60.832c1.549,28.602,1.383,57.295,1.771,85.958
				c0.024,1.829-1.55,3.652-2.255,5.527c-0.495,1.322-1.52,3.268-0.997,3.996c1.885,2.654,0.928,4.367-0.812,6.504
				c-0.668,0.822-0.754,3.097-0.111,3.84c5.3,6.086,3.263,14.277,6.242,20.988c0.303,0.68-0.233,1.9-0.674,2.701
				c-2.428,4.406-4.895,8.799-7.463,13.12c-1.641,2.776-3.232,5.644-5.309,8.075c-1.773,2.066-4.302,3.46-6.294,5.354
				c-1.002,0.957-2.491,2.908-2.157,3.512c3.516,6.291-3.535,11.003-2.306,16.98c0.537,2.608-0.075,5.485-0.43,8.206
				c-0.203,1.511-0.508,3.546-1.535,4.306c-4.707,3.506-3.985,7.256-0.938,11.176c2.594,3.324,1.51,4.348-2.271,4.996
				c-4.854,0.82-10.156,1.408-14.153,3.891c-2.066,1.281-2,6.412-2.32,9.854c-0.105,1.125,2.24,2.365,2.346,3.643
				c0.168,2.059-0.096,4.51-1.17,6.15c-0.486,0.744-3.557,0.445-5.07-0.234c-4.823-2.146-9.434-4.74-14.176-7.086
				c-5.156-2.553-8.293-1.354-11.008,3.926c-0.674,1.309-1.824,2.365-2.588,3.639c-0.75,1.266-1.283,2.66-1.937,4.047
				c-1.424-1.039-3-2.184-4.573-3.338c-0.265,0.279-0.519,0.557-0.775,0.84c0.566,1.086,1.129,2.18,2.098,4.023
				c-6.795-1.5-6.483-7.355-8.506-11.074c-1.885-3.445-5.756-8.055,0.303-11.793c0.285-0.172,0.386-1.309,0.123-1.605
				c-3.963-4.615-2.393-11.172-4.758-15.608c-3.086-5.755-9.367-9.817-14.36-14.521c-0.296-0.277-1.339,0.295-2.048,0.375
				c-1.141,0.128-3.104,0.562-3.282,0.174c-0.582-1.206-0.496-2.73-0.513-2.889c-6.69-6.039-13.217-11.326-18.881-17.422
				c-1.52-1.637-1.17-5.963-0.317-8.611c1.362-4.204,3.596-8.223,5.979-11.991c1.793-2.826,2.887-5.081,2.057-8.794
				c-0.457-2.025,2.623-4.857,4.539-8.023c-4.465-2.595-8.871-5.41-13.553-7.654c-1.002-0.478-3.09,0.967-4.518,1.803
				c-1.617,0.947-3.289,3.318-4.515,3.064c-1.616-0.345-3.604-2.441-4.039-4.145c-1.084-4.225-1.731-8.637-1.903-13.004
				c-0.351-8.598-7.715-11.561-12.562-16.592c-5.623-5.84-12.067-11.245-16.108-18.054c-1.72-2.897-5-6.616-3.871-11.986
				c0.864-4.154-2.601-9.048-3.283-13.733c-0.814-5.598,0.533-10.608,5.502-14.509c1.377-1.079,1.738-4.955,0.988-6.971
				c-2.066-5.583,1.145-7.087,5.268-7.381c4.514-0.335,6.535-1.92,7.418-6.632c0.688-3.622,3.084-7.133,5.385-10.197
				c3.332-4.443,2.785-11.398-1.166-15.618c-1.69-1.812-3.719-5.852-2.918-6.986c2.14-3.014-0.155-8.824,7.56-8.992
				c8.242-0.167,16.891-2.842,24.112-7.872c1.218-0.846,2.453-2.437,2.65-3.835c0.613-4.266,2.359-7.057,5.771-10.162
				c2.766-2.522,3.161-8.45,3.227-12.888c0.082-4.843-1.65-9.281-7.568-10.771c-1.793-0.456-4.192-3.06-4.315-4.812
				c-0.404-6.079-4.158-8.875-8.926-11.211C51.594,11.054,51.235,10.046,50.516,9.078z"/>
			<path fill="#241270" d="M113.321,351.398c-0.649,0-1.307-0.07-1.957-0.215c-10.062-2.219-12.649-10.072-13.893-13.848
				c-0.207-0.625-0.488-1.48-0.635-1.758c-0.168-0.305-0.373-0.648-0.582-1.002c-1.228-2.07-3.08-5.197-3.426-9.053
				c-0.263-2.932,0.389-5.725,1.848-8.188c-0.961-2.711-1.307-5.312-1.592-7.473c-0.152-1.141-0.381-2.863-0.621-3.369
				c-1.379-2.57-4.48-5.188-7.767-7.961c-0.456-0.386-0.916-0.773-1.379-1.168c-0.614,0.076-1.282,0.137-1.967,0.137
				c-4.561,0-7.481-2.701-8.738-5.291l0,0c-0.37-0.771-0.645-1.535-0.846-2.262c-1.016-0.9-2.026-1.787-3.029-2.664
				c-4.934-4.33-9.594-8.418-13.989-13.15c-5.746-6.188-2.683-16.422-2.312-17.569c1.836-5.657,4.844-10.735,6.947-14.063
				c0.635-0.998,0.854-1.438,0.93-1.629c-0.006-0.062-0.021-0.172-0.059-0.334c-0.588-2.604-0.164-4.936,0.668-6.963
				c-0.381-0.218-0.762-0.431-1.142-0.641c-1.534,1.398-4.348,3.908-8.524,3.908c-0.68,0-1.359-0.068-2.023-0.205
				c-4.991-1.064-9.694-5.695-10.998-10.785c-1.248-4.867-1.981-9.882-2.18-14.896c-0.08-1.939-1.074-3-4.986-6.177
				c-1.577-1.28-3.366-2.733-5.043-4.472c-1.312-1.364-2.676-2.706-4.118-4.126c-4.73-4.652-9.621-9.464-13.261-15.595
				c-0.213-0.361-0.459-0.735-0.715-1.129c-2.049-3.156-5.838-8.991-4.307-16.989c-0.121-0.72-0.717-2.3-1.119-3.372
				c-0.832-2.206-1.773-4.707-2.189-7.554c-1.207-8.294,1.05-15.456,6.537-20.896c-1.705-5.635-0.312-9.601,1.228-11.99
				c2.346-3.638,6.25-5.748,11.614-6.278c1.138-5.096,3.98-9.391,6.904-13.285c0.558-0.742,0.541-2.816-0.533-3.963
				c-0.104-0.111-8.899-9.699-4.18-17.697c0.041-0.188,0.086-0.417,0.123-0.605c1.662-8.415,6.752-12.774,15.127-12.957
				c6.416-0.13,12.863-2.14,18.283-5.68c1.076-5.189,3.502-9.295,7.869-13.395c0.221-0.611,0.664-2.373,0.729-6.738
				c0.015-0.876-0.086-1.41-0.16-1.655c-0.104-0.046-0.278-0.112-0.547-0.18c-5.049-1.284-10.723-6.803-11.156-12.98
				c-0.077-1.174-0.125-1.862-3.864-3.694c-2.861-1.431-4.234-3.694-4.894-4.781c-0.062-0.104-0.125-0.213-0.198-0.322
				c-2.048-2.754-2.349-6.404-0.808-9.47S47.086,0,50.516,0h128.34c2.867,0,5.564,1.354,7.279,3.652
				c1.713,2.298,2.24,5.27,1.422,8.017c-2.045,6.869-1.166,10.448,0.783,13.709c2.316,3.888,3.736,7.852,5.111,11.685
				c0.776,2.174,1.514,4.227,2.354,6.083c7.039,15.55,6.344,30.986,5.674,45.914c-0.285,6.328-0.555,12.306-0.235,18.177
				c1.182,21.816,1.377,43.947,1.565,65.349c0.062,6.994,0.123,13.986,0.219,20.978c0.05,3.561-1.477,6.346-2.389,8.012
				c-0.121,0.219-0.272,0.496-0.373,0.692c0.814,2.659,0.853,5.812-0.838,9.315c2.51,4.526,3.111,9.196,3.617,13.125
				c0.307,2.383,0.596,4.633,1.27,6.149c0.998,2.237,1.638,5.933-1.014,10.757c-2.994,5.434-5.342,9.561-7.615,13.389l-0.567,0.967
				c-1.545,2.633-3.295,5.617-5.642,8.363c-1.67,1.947-3.518,3.35-5,4.476c-0.129,0.099-0.256,0.194-0.381,0.289
				c0.547,4.845-1.275,8.942-2.406,11.483c-0.312,0.701-0.766,1.722-0.91,2.236c0.66,3.57,0.183,6.866-0.204,9.531
				c-0.064,0.439-0.13,0.879-0.185,1.312c-0.289,2.146-0.846,6.28-3.863,9.33c2.89,3.967,3.627,7.869,2.185,11.598
				c-2.287,5.912-8.492,6.977-10.531,7.326c-0.658,0.111-1.303,0.215-1.951,0.318c-2.373,0.383-4.803,0.773-6.721,1.377
				c-0.014,0.166-0.029,0.334-0.041,0.5c0.957,1.314,1.902,3.133,2.096,5.496c0.215,2.615,0.156,7.623-2.619,11.867
				c-1.104,1.691-3.776,4.543-9.215,4.543c-2.446,0-5.127-0.549-7.172-1.467c-3.297-1.467-6.459-3.107-9.518-4.693
				c-1.373-0.713-2.746-1.426-4.129-2.121c-0.724,1.291-1.521,2.289-2.119,3.039c-0.188,0.234-0.445,0.559-0.523,0.678
				c-0.199,0.336-0.5,1.018-0.817,1.738c-0.218,0.484-0.435,0.977-0.664,1.467c-1.154,2.451-3.343,4.26-5.968,4.932
				c-0.032,0.008-0.063,0.018-0.098,0.025C117.165,350.769,115.268,351.398,113.321,351.398z M111.95,325.449
				c0.293,0.494,0.573,0.977,0.827,1.438c0.238,0.441,0.453,0.879,0.648,1.312c4.271-7.73,9.998-9.383,14.111-9.383
				c2.748,0,5.559,0.729,8.592,2.23c1.731,0.857,3.449,1.746,5.166,2.637c0.332-4.812,0.938-11.146,6.414-14.541
				c3.201-1.986,6.643-3.076,10.002-3.814c-0.344-1.654-0.406-3.307-0.185-4.951c0.336-2.463,1.479-5.892,4.871-9.146
				c0.062-0.469,0.136-0.979,0.209-1.491c0.177-1.205,0.439-3.025,0.32-3.625c-1.129-5.482,0.859-9.953,2.174-12.912
				c0.269-0.601,0.642-1.438,0.83-1.984c-2.129-4.405-0.658-9.463,4.08-13.988c1.219-1.16,2.426-2.074,3.488-2.883
				c0.881-0.668,1.789-1.357,2.186-1.819c1.289-1.509,2.494-3.565,3.771-5.741l0.61-1.039c1.933-3.252,3.923-6.733,6.359-11.133
				c-0.756-2.666-1.086-5.234-1.389-7.588c-0.478-3.703-0.834-6.047-2.107-7.51c-3.119-3.611-3.479-9.755-1.088-14.046
				c-1.041-3.687,0.414-7.177,1.121-8.873c0.084-0.201,0.166-0.396,0.231-0.572c0.482-1.282,1.06-2.332,1.521-3.175
				c0.045-0.081,0.094-0.169,0.141-0.258c-0.086-6.616-0.145-13.231-0.203-19.847c-0.186-21.199-0.379-43.121-1.538-64.526
				c-0.367-6.77-0.064-13.482,0.227-19.975c0.602-13.382,1.17-26.021-4.072-37.605c-1.146-2.525-2.043-5.029-2.91-7.451
				c-1.133-3.157-2.2-6.139-3.608-8.503c-3.097-5.18-4.594-10.585-4.519-16.528H69.686c0.09,0.368,0.17,0.745,0.242,1.131
				c7.859,2.864,12.4,9.839,12.244,19.06c-0.103,6.903-0.914,14.632-6.188,19.44c-2.301,2.097-2.664,3.101-2.899,4.747
				c-0.635,4.499-3.752,8.118-6.455,9.997c-7.949,5.536-17.523,8.847-27.15,9.416c-0.057,0.236-0.119,0.479-0.188,0.729
				c0.022,0.033,0.049,0.062,0.069,0.089c6.892,7.356,7.683,19.335,1.765,27.227c-0.92,1.225-3.354,4.467-3.729,6.443
				c-1.393,7.428-5.494,11.955-12.209,13.486c0.324,4.416-0.801,9.827-4.785,12.95c-1.702,1.337-2.598,2.758-2.116,6.057
				c0.131,0.899,0.682,2.359,1.213,3.771c1.35,3.585,3.03,8.046,1.975,13.12c-0.156,0.741,0.307,1.626,1.688,3.753
				c0.396,0.611,0.772,1.194,1.104,1.751c2.437,4.104,6.293,7.899,10.377,11.918c1.467,1.441,2.982,2.934,4.465,4.473
				c0.902,0.937,2.119,1.925,3.408,2.972c4.484,3.642,11.262,9.144,11.685,19.546c0.062,1.549,0.19,3.096,0.387,4.633
				c1.455-0.652,3.139-1.156,5.053-1.156c1.537,0,3.006,0.328,4.365,0.976c3.863,1.853,7.406,3.964,10.834,6.007
				c1.127,0.672,2.25,1.342,3.379,1.996c2.104,1.225,3.633,3.242,4.236,5.604c0.602,2.359,0.231,4.863-1.029,6.947
				c-0.859,1.418-1.775,2.639-2.586,3.717c-0.125,0.168-0.271,0.36-0.414,0.558c0.414,5.306-1.496,9.235-3.697,12.707
				c-1.572,2.487-3.812,6.237-5.008,9.929c-0.107,0.331-0.186,0.749-0.234,1.137c3.414,3.496,7.228,6.84,11.232,10.354
				c1.834,1.61,3.697,3.245,5.574,4.937c2.278,0.099,4.42,0.992,6.063,2.545c1.222,1.147,2.599,2.312,4.056,3.541
				c4.237,3.576,9.039,7.629,12.073,13.289c1.781,3.34,2.236,6.771,2.603,9.531c0.237,1.795,0.508,3.83,1.045,4.453
				c1.869,2.135,2.692,5.199,2.203,8.342C114.018,322.285,113.196,324.054,111.95,325.449z"/>
		</g>
	</g>
</g>
<path fill="#DD492D" d="M165.77,77.352l-9.832-9.387L165.782,58c0.946-0.957,0.936-2.589,0.104-3.647l-0.172-0.213
	c-0.68-0.851-1.793-1.19-2.838-0.892l-12.746,3.764l-3.269-14.098c-0.286-1.176-1.532-2.716-2.756-2.716h-0.235
	c-1.236,0-2.343,1.656-2.636,2.853l-3.252,13.627l-12.803-3.612c-1.068-0.313-2.223,0.152-2.896,1.049l-0.433,0.604
	c-0.813,1.094-0.684,2.644,0.31,3.571l9.965,9.407l-9.695,9.817c-0.943,0.942-1.045,2.432-0.254,3.49l0.254,0.34
	c0.674,0.912,1.834,1.307,2.918,0.988l12.639-3.703l3.294,13.444c0.299,1.211,1.383,2.037,2.594,2.037
	c0.146,0,0.283-0.011,0.432-0.031l0.404-0.07c1.059-0.173,1.916-0.978,2.168-2.021l3.252-13.369l12.695,3.733
	c1.104,0.33,2.438-0.278,3.086-1.235l0.231-0.35C166.866,79.692,166.708,78.248,165.77,77.352z"/>
</svg>
